<svg width="446" height="597" viewBox="0 0 446 597" fill="none" xmlns="http://www.w3.org/2000/svg">
<path d="M79 565.5C44.6 554.7 13.3333 454 2 405L275.5 3C327.333 78.1667 433.7 251.2 444.5 342C455.3 432.8 297 549.5 216.5 596.5C185 590.667 113.4 576.3 79 565.5Z" fill="#EC52AE"/>
<path d="M73.5001 212.5C122 162.5 169.667 132.167 197.5 105.5L278.5 0.5C287.5 37.6667 316.5 122.3 360.5 189.5C415.5 273.5 377 418.5 278.5 451C262.166 456.389 158 517.667 108.5 551C92.8335 518.5 52.3001 446.5 15.5001 418.5C-30.4999 383.5 39.6099 247.439 73.5001 212.5Z" fill="#AEFF9A"/>
<path d="M150.5 232.5C168.9 212.1 225.5 173.667 251.5 157C269 191.167 303.7 268.9 302.5 306.5C301.3 344.1 246.333 376.167 219 387.5L122 466C111.667 456.5 87.2001 427.5 72.0001 387.5C53.0001 337.5 127.5 258 150.5 232.5Z" fill="#600862"/>
</svg>
