<svg width="311" height="349" viewBox="0 0 311 349" fill="none" xmlns="http://www.w3.org/2000/svg">
<path d="M27.5 282C-23.5 262 5.32735 151.186 55.5 119C63.7786 113.689 74.7735 106.622 86 98.819C86.5809 98.4152 87.1623 98.0095 87.7441 97.602C99.5071 89.2069 123.221 68.8125 137 47.5L155 7L161.543 10.1918C165.4 9.8008 170.325 9.17963 175.5 17C192.906 43.3022 219.233 99.2739 260 119C337.5 156.5 308.5 290 287 293C269.8 295.4 173.833 331 128 348.5C111.5 333 68.3 298 27.5 282Z" fill="#EC52AE"/>
<path d="M36.5 135.5C38.1667 129.333 67.6 114.9 92 90.5C114.649 67.8506 138.211 36.7398 143.445 16.4974C151.463 6.04881 158.686 -8.15034 167.5 6.15166C176.18 20.2364 205.411 64.6181 244.135 109L263.07 120.405C269.039 123.075 274.917 125.844 279 130C281.313 132.354 274.646 141.69 277 144L237 119.152L195 156.652C181.333 146.485 152.1 124.752 144.5 119.152C136.9 113.552 59.5 123.833 36.5 135.5Z" fill="#AEFF9A"/>
</svg>
