<svg width="270" height="259" viewBox="0 0 270 259" fill="none" xmlns="http://www.w3.org/2000/svg">
<path d="M109 95.7592C93.3333 53.2592 53.5 -13.0892 145 2.25921C222.5 15.2592 165.5 77.7592 152.5 95.7592L171.5 133.259L137.5 164.759L99 144.259L95.5 137.259L109 95.7592Z" fill="#AEFF9A"/>
<path d="M251.845 93.6697C230.022 3.49447 184.651 66.1862 151.72 97.2864L168.805 137.291C190.464 142.176 270.329 170.048 251.845 93.6697Z" fill="#AEFF9A"/>
<path d="M194.308 232.815C277.195 191.132 205.856 161.141 168.104 136.111L133.01 161.814C133.158 184.017 124.102 268.119 194.308 232.815Z" fill="#AEFF9A"/>
<path d="M55.3313 221.93C125.772 282.312 125.909 204.925 134.432 160.438L97.1772 137.981C76.751 146.686 -4.33154 170.787 55.3313 221.93Z" fill="#AEFF9A"/>
<path d="M17.6133 78.3218C-21.4518 162.475 53.0848 141.664 98.2179 137.829L109.754 95.887C95.8465 78.5788 50.7012 7.04454 17.6133 78.3218Z" fill="#AEFF9A"/>
<path d="M93.8337 130.643C60.3535 133.466 5.03131 148.901 34.1776 86.3163C58.8643 33.3076 94.2213 85.3727 104.5 98.2592L125 125.259L93.8337 130.643Z" fill="#FDFF9A"/>
<path d="M125.136 160.711C121.157 194.073 125.131 251.371 69.7007 210.215C22.7516 175.356 80.8717 151.212 95.5645 143.74L126.141 129.099L125.136 160.711Z" fill="#FDFF9A"/>
<path d="M170.472 147.253C197.271 167.519 248.747 192.993 185.249 220.09C131.466 243.042 139.94 180.68 140.9 164.224L143.684 130.438L170.472 147.253Z" fill="#FDFF9A"/>
<path d="M164.881 98.8535C188.671 75.1282 221.046 27.6873 239.065 94.3331C254.326 150.782 193.744 133.731 177.581 130.495L144.509 123.047L164.881 98.8535Z" fill="#FDFF9A"/>
<path d="M115.973 84.5121C104.814 52.82 75.9538 3.16275 143.859 15.6205C201.374 26.1721 159.883 73.4942 149.998 86.6851L129.027 113.32L115.973 84.5121Z" fill="#FDFF9A"/>
</svg>
