<svg width="270" height="259" viewBox="0 0 270 259" fill="none" xmlns="http://www.w3.org/2000/svg">
<path d="M109 96.5C93.3333 54 53.5 -12.3484 145 3.00002C222.5 16 165.5 78.5 152.5 96.5L171.5 134L137.5 165.5L99 145L95.5 138L109 96.5Z" fill="#FDCCFD"/>
<path d="M251.845 94.4105C230.022 4.23528 184.651 66.927 151.72 98.0272L168.805 138.031C190.464 142.917 270.329 170.788 251.845 94.4105Z" fill="#FDCCFD"/>
<path d="M194.308 233.555C277.195 191.873 205.856 161.882 168.104 136.852L133.01 162.555C133.158 184.758 124.102 268.86 194.308 233.555Z" fill="#FDCCFD"/>
<path d="M55.3313 222.671C125.772 283.053 125.909 205.666 134.432 161.179L97.1772 138.722C76.751 147.427 -4.33154 171.528 55.3313 222.671Z" fill="#FDCCFD"/>
<path d="M17.6133 79.0626C-21.4518 163.216 53.0848 142.405 98.2179 138.57L109.754 96.6278C95.8465 79.3196 50.7012 7.78536 17.6133 79.0626Z" fill="#FDCCFD"/>
<path d="M93.8337 131.384C60.3535 134.207 5.03131 149.642 34.1776 87.0571C58.8643 34.0484 94.2213 86.1135 104.5 99L125 126L93.8337 131.384Z" fill="#AEFF9A"/>
<path d="M125.136 161.452C121.157 194.814 125.131 252.111 69.7007 210.956C22.7516 176.097 80.8717 151.953 95.5645 144.481L126.141 129.84L125.136 161.452Z" fill="#AEFF9A"/>
<path d="M170.472 147.993C197.271 168.26 248.747 193.733 185.249 220.831C131.466 243.783 139.94 181.42 140.9 164.965L143.684 131.179L170.472 147.993Z" fill="#AEFF9A"/>
<path d="M164.881 99.5943C188.671 75.8691 221.046 28.4281 239.065 95.0739C254.326 151.522 193.744 134.472 177.581 131.236L144.509 123.788L164.881 99.5943Z" fill="#AEFF9A"/>
<path d="M115.973 85.2529C104.814 53.5608 75.9538 3.90357 143.859 16.3613C201.374 26.9129 159.883 74.235 149.998 87.426L129.027 114.061L115.973 85.2529Z" fill="#AEFF9A"/>
</svg>
