<?xml version="1.0" encoding="utf-8"?>
<!-- Generator: Adobe Illustrator 28.3.0, SVG Export Plug-In . SVG Version: 6.00 Build 0)  -->
<svg version="1.1" xmlns="http://www.w3.org/2000/svg" xmlns:xlink="http://www.w3.org/1999/xlink" x="0px" y="0px"
	 viewBox="0 0 1920 1080" style="enable-background:new 0 0 1920 1080;" xml:space="preserve">
<style type="text/css">
	.st0{fill:#46773F;}
	.st1{fill:#6CAA5B;}
	.st2{fill:#98CE89;}
</style>
<g id="Layer_3">
	<g>
		<path class="st0" d="M1057.36,563c-0.99,31.1-7.72,99.43-10.96,129.7l-6.07-0.19l4.13-129.91c-2.97-0.09-8.67,3.94-7.69,20.83
			c1.23,21.11-12.87,28.64-38.28,39.79s-77.82-36.46-93.53-43.98c-15.71-7.52-9.98-62.4,10.72-56.61c20.7,5.78,37.93,7.09,42.1,1.34
			c4.17-5.75-42.83-38.38-49.4-52.64s-2.97-61.99,18.34-75.36c21.31-13.37,52.63,10.6,55.03,30.8s41.59,47.27,27.63,14.74
			c-13.96-32.53-18.93-97.42,3.27-102.79c22.19-5.37-13.87-35.37,39.8-27.78c53.68,7.59,4.86,38.12,44.78,36.55
			c39.92-1.58,22.22,23.68-10.91,62.49c-33.13,38.82,0.84,69.13,7.39,48.27c6.55-20.87,22.29-38.21,36.61-46.87
			s42.52-17.63,56.77,35.79s-47.65,83.54-44.93,93.69c2.72,10.15,53.51,12.71,50.8,38.44c-2.72,25.73-55.8,53.28-94.52,47.12
			C1067.46,621.45,1058.14,582.07,1057.36,563z"/>
	</g>
	<g>
		<path class="st0" d="M1532.7,591.23c-0.99,31.1-7.72,99.43-10.96,129.7l-6.07-0.19l4.13-129.91c-2.97-0.09-8.67,3.94-7.69,20.83
			c1.23,21.11-12.87,28.64-38.28,39.79c-25.41,11.15-77.82-36.46-93.53-43.98c-15.71-7.52-9.98-62.4,10.72-56.61
			s37.93,7.09,42.1,1.34c4.17-5.75-42.83-38.38-49.4-52.64c-6.57-14.26-2.97-61.99,18.34-75.36c21.31-13.37,52.63,10.6,55.03,30.8
			c2.4,20.2,41.59,47.27,27.63,14.74s-18.93-97.42,3.27-102.79s-13.87-35.37,39.8-27.78c53.68,7.59,4.86,38.12,44.78,36.55
			c39.92-1.58,22.22,23.68-10.91,62.49c-33.13,38.82,0.84,69.13,7.39,48.27c6.55-20.87,22.29-38.21,36.61-46.87
			c14.32-8.66,42.52-17.63,56.77,35.79s-47.65,83.54-44.93,93.69c2.72,10.15,53.51,12.71,50.8,38.44
			c-2.72,25.73-55.8,53.28-94.52,47.12C1542.8,649.68,1533.49,610.3,1532.7,591.23z"/>
	</g>
	<g>
		<path class="st0" d="M1281.7,213.23c-0.99,31.1-7.72,99.43-10.96,129.7l-6.07-0.19l4.13-129.91c-2.97-0.09-8.67,3.94-7.69,20.83
			c1.23,21.11-12.87,28.64-38.28,39.79c-25.41,11.15-77.82-36.46-93.53-43.98c-15.71-7.52-9.98-62.4,10.72-56.61
			c20.7,5.78,37.93,7.09,42.1,1.34c4.17-5.75-42.83-38.38-49.4-52.64s-2.97-61.99,18.34-75.36c21.31-13.37,52.63,10.6,55.03,30.8
			c2.4,20.2,41.59,47.27,27.63,14.74S1214.8-5.7,1237-11.07s-13.87-35.37,39.8-27.78c53.68,7.59,4.86,38.12,44.78,36.55
			c39.92-1.58,22.22,23.68-10.91,62.49c-33.13,38.82,0.84,69.13,7.39,48.27c6.55-20.87,22.29-38.21,36.61-46.87
			c14.32-8.66,42.52-17.63,56.77,35.79s-47.65,83.54-44.93,93.69c2.72,10.15,53.51,12.71,50.8,38.44
			c-2.72,25.73-55.8,53.28-94.52,47.12C1291.8,271.68,1282.49,232.3,1281.7,213.23z"/>
	</g>
	<g>
		<path class="st0" d="M359.7,321.23c-0.99,31.1-7.72,99.43-10.96,129.7l-6.07-0.19l4.13-129.91c-2.97-0.09-8.67,3.94-7.69,20.83
			c1.23,21.11-12.87,28.64-38.28,39.79s-77.82-36.46-93.53-43.98s-9.98-62.4,10.72-56.61c20.7,5.78,37.93,7.09,42.1,1.34
			c4.17-5.75-42.83-38.38-49.4-52.64c-6.57-14.26-2.97-61.99,18.34-75.36c21.31-13.37,52.63,10.6,55.03,30.8
			c2.4,20.2,41.59,47.27,27.63,14.74C297.77,167.19,292.8,102.3,315,96.93c22.19-5.37-13.87-35.37,39.8-27.78
			c53.68,7.59,4.86,38.12,44.78,36.55c39.92-1.58,22.22,23.68-10.91,62.49s0.84,69.13,7.39,48.27s22.29-38.21,36.61-46.87
			c14.32-8.66,42.52-17.63,56.77,35.79s-47.65,83.54-44.93,93.69s53.51,12.71,50.8,38.44c-2.72,25.73-55.8,53.28-94.52,47.12
			C369.8,379.68,360.49,340.3,359.7,321.23z"/>
	</g>
	<g>
		<path class="st0" d="M325.7,884.23c-0.99,31.1-7.72,99.43-10.96,129.7l-6.07-0.19l4.13-129.91c-2.97-0.09-8.67,3.94-7.69,20.83
			c1.23,21.11-12.87,28.64-38.28,39.79c-25.41,11.15-77.82-36.46-93.53-43.98c-15.71-7.52-9.98-62.4,10.72-56.61
			c20.7,5.78,37.93,7.09,42.1,1.34c4.17-5.75-42.83-38.38-49.4-52.64c-6.57-14.26-2.97-61.99,18.34-75.36s52.63,10.6,55.03,30.8
			c2.4,20.2,41.59,47.27,27.63,14.74c-13.96-32.53-18.93-97.42,3.27-102.79c22.19-5.37-13.87-35.37,39.8-27.78
			c53.68,7.59,4.86,38.12,44.78,36.55c39.92-1.58,22.22,23.68-10.91,62.49c-33.13,38.82,0.84,69.13,7.39,48.27
			s22.29-38.21,36.61-46.87c14.32-8.66,42.52-17.63,56.77,35.79c14.25,53.42-47.65,83.54-44.93,93.69
			c2.72,10.15,53.51,12.71,50.8,38.44c-2.72,25.73-55.8,53.28-94.52,47.12C335.8,942.68,326.49,903.3,325.7,884.23z"/>
	</g>
	<g>
		<path class="st0" d="M88.7,599.23c-0.99,31.1-7.72,99.43-10.96,129.7l-6.07-0.19l4.13-129.91c-2.97-0.09-8.67,3.94-7.69,20.83
			c1.23,21.11-12.87,28.64-38.28,39.79c-25.41,11.15-77.82-36.46-93.53-43.98c-15.71-7.52-9.98-62.4,10.72-56.61
			c20.7,5.78,37.93,7.09,42.1,1.34s-42.83-38.38-49.4-52.64c-6.57-14.26-2.97-61.99,18.34-75.36c21.31-13.37,52.63,10.6,55.03,30.8
			s41.59,47.27,27.63,14.74S21.8,380.3,44,374.93s-13.87-35.37,39.8-27.78c53.68,7.59,4.86,38.12,44.78,36.55
			c39.92-1.58,22.22,23.68-10.91,62.49s0.84,69.13,7.39,48.27c6.55-20.87,22.29-38.21,36.61-46.87
			c14.32-8.66,42.52-17.63,56.77,35.79s-47.65,83.54-44.93,93.69c2.72,10.15,53.51,12.71,50.8,38.44s-55.8,53.28-94.52,47.12
			C98.8,657.68,89.49,618.3,88.7,599.23z"/>
	</g>
	<g>
		<path class="st0" d="M939.28,920.14c-31.09,1.46-99.72,0.11-130.16-0.74l-0.28-6.07l129.84-6.08c-0.14-2.97-4.61-8.33-21.37-6.03
			c-20.95,2.88-29.56-10.58-42.67-35.04c-13.11-24.46,30.24-80.44,36.5-96.69c6.27-16.25,61.42-14.84,57.28,6.25
			c-4.14,21.09-4.09,38.37,1.97,42.08c6.06,3.71,34.9-45.71,48.6-53.38c13.7-7.67,61.56-7.82,76.56,12.37
			c15,20.19-6.43,53.3-26.38,57.27s-43.85,45.18-12.52,28.7c31.33-16.47,95.64-26.51,102.73-4.81s34.18-16.61,30.82,37.5
			c-3.35,54.11-37.63,7.84-32.92,47.51c4.71,39.67-21.86,24.01-63.16-5.97c-41.3-29.98-68.85,6.26-47.54,11.15
			c21.31,4.89,39.84,19.22,49.6,32.82s20.92,41-31.22,59.4s-87.02-40.95-96.92-37.44s-8.47,54.35-34.34,53.66
			c-25.87-0.69-57.5-51.45-54.39-90.53C881.8,934.8,920.33,922.42,939.28,920.14z"/>
	</g>
	<g>
		<path class="st0" d="M1672.73,150.37c-31.09,1.46-99.72,0.11-130.16-0.74l-0.28-6.07l129.84-6.08c-0.14-2.97-4.61-8.33-21.37-6.03
			c-20.95,2.88-29.56-10.58-42.67-35.04c-13.11-24.46,30.24-80.44,36.5-96.69s61.42-14.84,57.28,6.25
			c-4.14,21.09-4.09,38.37,1.97,42.08c6.06,3.71,34.9-45.71,48.6-53.38C1766.13-13,1814-13.16,1829,7.04s-6.43,53.3-26.38,57.27
			c-19.95,3.97-43.85,45.18-12.52,28.7s95.64-26.51,102.73-4.81s34.18-16.61,30.82,37.5s-37.63,7.84-32.92,47.51
			c4.71,39.67-21.86,24.01-63.16-5.97c-41.3-29.98-68.85,6.26-47.54,11.15c21.31,4.89,39.84,19.22,49.6,32.82
			c9.76,13.6,20.92,41-31.22,59.4s-87.02-40.95-96.92-37.44s-8.47,54.35-34.34,53.66c-25.87-0.69-57.5-51.45-54.39-90.53
			C1615.25,165.03,1653.77,152.65,1672.73,150.37z"/>
	</g>
	<g>
		<path class="st0" d="M772.73,484.37c-31.09,1.46-99.72,0.11-130.16-0.74l-0.28-6.07l129.84-6.08c-0.14-2.97-4.61-8.33-21.37-6.03
			c-20.95,2.88-29.56-10.58-42.67-35.04c-13.11-24.46,30.24-80.44,36.5-96.69c6.27-16.25,61.42-14.84,57.28,6.25
			c-4.14,21.09-4.09,38.37,1.97,42.08s34.9-45.71,48.6-53.38c13.7-7.67,61.56-7.82,76.56,12.37s-6.43,53.3-26.38,57.27
			s-43.85,45.18-12.52,28.7c31.33-16.47,95.64-26.51,102.73-4.81c7.1,21.7,34.18-16.61,30.82,37.5
			c-3.35,54.11-37.63,7.84-32.92,47.51c4.71,39.67-21.86,24.01-63.16-5.97c-41.3-29.98-68.85,6.26-47.54,11.15
			c21.31,4.89,39.84,19.22,49.6,32.82c9.76,13.6,20.92,41-31.22,59.4c-52.14,18.4-87.02-40.95-96.92-37.44
			c-9.9,3.5-8.47,54.35-34.34,53.66s-57.5-51.45-54.39-90.53C715.25,499.03,753.77,486.65,772.73,484.37z"/>
	</g>
	<g>
		<path class="st0" d="M584.42,516.6c-11.09,29.08-39.75,91.46-52.69,119.02l-5.67-2.16L572.37,512
			c-2.78-1.06-9.48,0.89-14.06,17.18c-5.73,20.36-21.51,22.87-49.18,25.11c-27.66,2.25-61.66-59.86-74.05-72.1
			c-12.39-12.24,10.94-62.24,28.61-50.01c17.68,12.22,33.54,19.08,39.36,15.01c5.82-4.08-27.95-50.26-29.51-65.88
			c-1.56-15.62,17.43-59.56,41.93-65.24c24.51-5.68,46.29,27.19,41.96,47.07s23.89,58.25,21.31,22.95
			c-2.58-35.3,13.91-98.27,36.64-96.1c22.73,2.17-1.57-37.96,46.69-13.27c48.26,24.7-7.85,37.62,30.4,49.16
			c38.25,11.54,13.27,29.63-30.71,55.51S640,447.01,653,429.43s33.54-28.84,49.9-32.35s45.94-2.79,41.98,52.36
			s-72.31,63.41-73.05,73.89s46.43,29.48,35.47,52.92s-70.14,32.15-104.73,13.68C574.89,575.15,578.94,534.89,584.42,516.6z"/>
	</g>
	<g>
		<path class="st0" d="M522.22,760.75c-31.09,1.46-99.72,0.11-130.16-0.74l-0.28-6.07l129.84-6.08c-0.14-2.97-4.61-8.33-21.37-6.03
			c-20.95,2.88-29.56-10.58-42.67-35.04c-13.11-24.46,30.24-80.44,36.5-96.69c6.27-16.25,61.42-14.84,57.28,6.25
			c-4.14,21.09-4.09,38.37,1.97,42.08c6.06,3.71,34.9-45.71,48.6-53.38c13.7-7.67,61.56-7.82,76.56,12.37
			c15,20.19-6.43,53.3-26.38,57.27s-43.85,45.18-12.52,28.7c31.33-16.47,95.64-26.51,102.73-4.81c7.1,21.7,34.18-16.61,30.82,37.5
			c-3.35,54.11-37.63,7.84-32.92,47.51c4.71,39.67-21.86,24.01-63.16-5.97s-68.85,6.26-47.54,11.15
			c21.31,4.89,39.84,19.22,49.6,32.82c9.76,13.6,20.92,41-31.22,59.4c-52.14,18.4-87.02-40.95-96.92-37.44
			c-9.9,3.5-8.47,54.35-34.34,53.66c-25.87-0.69-57.5-51.45-54.39-90.53C464.74,775.41,503.27,763.03,522.22,760.75z"/>
	</g>
	<g>
		<path class="st0" d="M761.22,73.75c-31.09,1.46-99.72,0.11-130.16-0.74l-0.28-6.07l129.84-6.08c-0.14-2.97-4.61-8.33-21.37-6.03
			c-20.95,2.88-29.56-10.58-42.67-35.04s30.24-80.44,36.5-96.69s61.42-14.84,57.28,6.25c-4.14,21.09-4.09,38.37,1.97,42.08
			c6.06,3.71,34.9-45.71,48.6-53.38c13.7-7.67,61.56-7.82,76.56,12.37s-6.43,53.3-26.38,57.27s-43.85,45.18-12.52,28.7
			c31.33-16.47,95.64-26.51,102.73-4.81c7.1,21.7,34.18-16.61,30.82,37.5s-37.63,7.84-32.92,47.51
			c4.71,39.67-21.86,24.01-63.16-5.97s-68.85,6.26-47.54,11.15c21.31,4.89,39.84,19.22,49.6,32.82c9.76,13.6,20.92,41-31.22,59.4
			c-52.14,18.4-87.02-40.95-96.92-37.44c-9.9,3.5-8.47,54.35-34.34,53.66c-25.87-0.69-57.5-51.45-54.39-90.53
			C703.74,88.41,742.27,76.03,761.22,73.75z"/>
	</g>
	<g>
		<path class="st0" d="M60.22,752.75c-31.09,1.46-99.72,0.11-130.16-0.74l-0.28-6.07l129.84-6.08c-0.14-2.97-4.61-8.33-21.37-6.03
			c-20.95,2.88-29.56-10.58-42.67-35.04c-13.11-24.46,30.24-80.44,36.5-96.69c6.27-16.25,61.42-14.84,57.28,6.25
			c-4.14,21.09-4.09,38.37,1.97,42.08c6.06,3.71,34.9-45.71,48.6-53.38c13.7-7.67,61.56-7.82,76.56,12.37
			c15,20.19-6.43,53.3-26.38,57.27s-43.85,45.18-12.52,28.7s95.64-26.51,102.73-4.81c7.1,21.7,34.18-16.61,30.82,37.5
			c-3.35,54.11-37.63,7.84-32.92,47.51c4.71,39.67-21.86,24.01-63.16-5.97s-68.85,6.26-47.54,11.15
			c21.31,4.89,39.84,19.22,49.6,32.82s20.92,41-31.22,59.4s-87.02-40.95-96.92-37.44s-8.47,54.35-34.34,53.66
			s-57.5-51.45-54.39-90.53C2.74,767.41,41.27,755.03,60.22,752.75z"/>
	</g>
	<g>
		<path class="st0" d="M1766.25,1016.74c-17.79,25.53-60.7,79.12-79.93,102.73l-4.98-3.47l74.32-106.64
			c-2.44-1.7-9.41-1.43-17.8,13.27c-10.49,18.36-26.41,16.98-53.79,12.47c-27.38-4.51-45.34-73-54.4-87.88
			c-9.06-14.87,25.67-57.74,39.87-41.6c14.19,16.14,27.93,26.63,34.56,24.09c6.63-2.55-14.96-55.53-12.69-71.06
			s31.32-53.57,56.48-53.16c25.15,0.42,38.33,37.59,29.32,55.83c-9.01,18.24,9.08,62.3,15.12,27.42
			c6.04-34.88,37.28-91.98,58.81-84.37c21.53,7.6,7.67-37.22,48.51-1.58c40.85,35.64-16.72,34.61,17.6,55.06
			c34.32,20.45,5.71,31.97-43.23,46.43c-48.94,14.46-37,58.4-20.13,44.48s39.52-19.87,56.25-19.31
			c16.73,0.56,45.25,8.41,28.06,60.96c-17.2,52.55-85.5,44.03-88.76,54.01c-3.26,9.99,37.92,39.84,21.61,59.93
			c-16.31,20.09-75.83,14.22-104.92-12.07C1742.84,1071.24,1756.51,1033.15,1766.25,1016.74z"/>
	</g>
	<g>
		<path class="st0" d="M1007.39,314.57c-17.79,25.53-60.7,79.12-79.93,102.73l-4.98-3.47l74.32-106.64
			c-2.44-1.7-9.41-1.43-17.8,13.27c-10.49,18.36-26.41,16.98-53.79,12.47c-27.38-4.51-45.34-73-54.4-87.88
			c-9.06-14.87,25.67-57.74,39.87-41.6c14.19,16.14,27.93,26.63,34.56,24.09c6.63-2.55-14.96-55.53-12.69-71.06
			c2.27-15.53,31.32-53.57,56.48-53.16c25.15,0.42,38.33,37.59,29.32,55.83c-9.01,18.24,9.08,62.3,15.12,27.42
			c6.04-34.88,37.28-91.98,58.81-84.37c21.53,7.6,7.67-37.22,48.51-1.58s-16.72,34.61,17.6,55.06
			c34.32,20.45,5.71,31.97-43.23,46.43c-48.94,14.46-37,58.4-20.13,44.48c16.87-13.92,39.52-19.87,56.25-19.31
			s45.25,8.41,28.06,60.96c-17.2,52.55-85.5,44.03-88.76,54.01c-3.26,9.99,37.92,39.84,21.61,59.93s-75.83,14.22-104.92-12.07
			C983.98,369.08,997.65,330.99,1007.39,314.57z"/>
	</g>
	<g>
		<path class="st0" d="M1244.78,551.98c-17.79,25.53-60.7,79.12-79.93,102.73l-4.98-3.47l74.32-106.64
			c-2.44-1.7-9.41-1.43-17.8,13.27c-10.49,18.36-26.41,16.98-53.79,12.47s-45.34-73-54.4-87.88s25.67-57.74,39.87-41.6
			c14.19,16.14,27.93,26.63,34.56,24.09c6.63-2.55-14.96-55.53-12.69-71.06c2.27-15.53,31.32-53.57,56.48-53.16
			c25.15,0.42,38.33,37.59,29.32,55.83c-9.01,18.24,9.08,62.3,15.12,27.42s37.28-91.98,58.81-84.37c21.53,7.6,7.67-37.22,48.51-1.58
			c40.85,35.64-16.72,34.61,17.6,55.06c34.32,20.45,5.71,31.97-43.23,46.43s-37,58.4-20.13,44.48
			c16.87-13.92,39.52-19.87,56.25-19.31c16.73,0.56,45.25,8.41,28.06,60.96c-17.2,52.55-85.5,44.03-88.76,54.01
			s37.92,39.84,21.61,59.93c-16.31,20.09-75.83,14.22-104.92-12.07C1221.37,606.48,1235.04,568.39,1244.78,551.98z"/>
	</g>
	<g>
		<path class="st0" d="M1270.78,913.98c-17.79,25.53-60.7,79.12-79.93,102.73l-4.98-3.47l74.32-106.64
			c-2.44-1.7-9.41-1.43-17.8,13.27c-10.49,18.36-26.41,16.98-53.79,12.47s-45.34-73-54.4-87.88c-9.06-14.87,25.67-57.74,39.87-41.6
			c14.19,16.14,27.93,26.63,34.56,24.09c6.63-2.55-14.96-55.53-12.69-71.06s31.32-53.57,56.48-53.16
			c25.15,0.42,38.33,37.59,29.32,55.83c-9.01,18.24,9.08,62.3,15.12,27.42c6.04-34.88,37.28-91.98,58.81-84.37
			c21.53,7.6,7.67-37.22,48.51-1.58c40.85,35.64-16.72,34.61,17.6,55.06c34.32,20.45,5.71,31.97-43.23,46.43
			c-48.94,14.46-37,58.4-20.13,44.48c16.87-13.92,39.52-19.87,56.25-19.31c16.73,0.56,45.25,8.41,28.06,60.96
			c-17.2,52.55-85.5,44.03-88.76,54.01s37.92,39.84,21.61,59.93c-16.31,20.09-75.83,14.22-104.92-12.07
			C1247.37,968.48,1261.04,930.39,1270.78,913.98z"/>
	</g>
	<g>
		<path class="st0" d="M899.78,1075.98c-17.79,25.53-60.7,79.12-79.93,102.73l-4.98-3.47l74.32-106.64
			c-2.44-1.7-9.41-1.43-17.8,13.27c-10.49,18.36-26.41,16.98-53.79,12.47c-27.38-4.51-45.34-73-54.4-87.88
			c-9.06-14.87,25.67-57.74,39.87-41.6c14.19,16.14,27.93,26.63,34.56,24.09c6.63-2.55-14.96-55.53-12.69-71.06
			c2.27-15.53,31.32-53.57,56.48-53.16c25.15,0.42,38.33,37.59,29.32,55.83c-9.01,18.24,9.08,62.3,15.12,27.42
			c6.04-34.88,37.28-91.98,58.81-84.37c21.53,7.6,7.67-37.22,48.51-1.58c40.85,35.64-16.72,34.61,17.6,55.06
			c34.32,20.45,5.71,31.97-43.23,46.43c-48.94,14.46-37,58.4-20.13,44.48c16.87-13.92,39.52-19.87,56.25-19.31
			c16.73,0.56,45.25,8.41,28.06,60.96c-17.2,52.55-85.5,44.03-88.76,54.01c-3.26,9.99,37.92,39.84,21.61,59.93
			s-75.83,14.22-104.92-12.07C876.37,1130.48,890.04,1092.39,899.78,1075.98z"/>
	</g>
	<g>
		<path class="st0" d="M894.78,718.98c-17.79,25.53-60.7,79.12-79.93,102.73l-4.98-3.47L884.2,711.6c-2.44-1.7-9.41-1.43-17.8,13.27
			c-10.49,18.36-26.41,16.98-53.79,12.47c-27.38-4.51-45.34-73-54.4-87.88c-9.06-14.87,25.67-57.74,39.87-41.6
			c14.19,16.14,27.93,26.63,34.56,24.09c6.63-2.55-14.96-55.53-12.69-71.06c2.27-15.53,31.32-53.57,56.48-53.16
			c25.15,0.42,38.33,37.59,29.32,55.83c-9.01,18.24,9.08,62.3,15.12,27.42c6.04-34.88,37.28-91.98,58.81-84.37
			c21.53,7.6,7.67-37.22,48.51-1.58c40.85,35.64-16.72,34.61,17.6,55.06c34.32,20.45,5.71,31.97-43.23,46.43
			c-48.94,14.46-37,58.4-20.13,44.48c16.87-13.92,39.52-19.87,56.25-19.31c16.73,0.56,45.25,8.41,28.06,60.96
			c-17.2,52.55-85.5,44.03-88.76,54.01s37.92,39.84,21.61,59.93c-16.31,20.09-75.83,14.22-104.92-12.07
			C871.37,773.48,885.04,735.39,894.78,718.98z"/>
	</g>
	<g>
		<path class="st0" d="M1100.61,680.15c-31.09,1.46-99.72,0.11-130.16-0.74l-0.28-6.07l129.84-6.08c-0.14-2.97-4.61-8.33-21.37-6.03
			c-20.95,2.88-29.56-10.58-42.67-35.04c-13.11-24.46,30.24-80.44,36.5-96.69c6.27-16.25,61.42-14.84,57.28,6.25
			c-4.14,21.09-4.09,38.37,1.97,42.08s34.9-45.71,48.6-53.38c13.7-7.67,61.56-7.82,76.56,12.37c15,20.19-6.43,53.3-26.38,57.27
			s-43.85,45.18-12.52,28.7s95.64-26.51,102.73-4.81c7.1,21.7,34.18-16.61,30.82,37.5c-3.35,54.11-37.63,7.84-32.92,47.51
			c4.71,39.67-21.86,24.01-63.16-5.97c-41.3-29.98-68.85,6.26-47.54,11.15c21.31,4.89,39.84,19.22,49.6,32.82s20.92,41-31.22,59.4
			c-52.14,18.4-87.02-40.95-96.92-37.44c-9.9,3.5-8.47,54.35-34.34,53.66c-25.87-0.69-57.5-51.45-54.39-90.53
			C1043.13,694.81,1081.66,682.43,1100.61,680.15z"/>
	</g>
	<g>
		<path class="st0" d="M1762.61,461.77c-31.09,1.46-99.72,0.11-130.16-0.74l-0.28-6.07l129.84-6.08c-0.14-2.97-4.61-8.33-21.37-6.03
			c-20.95,2.88-29.56-10.58-42.67-35.04c-13.11-24.46,30.24-80.44,36.5-96.69c6.27-16.25,61.42-14.84,57.28,6.25
			c-4.14,21.09-4.09,38.37,1.97,42.08c6.06,3.71,34.9-45.71,48.6-53.38c13.7-7.67,61.56-7.82,76.56,12.37
			c15,20.19-6.43,53.3-26.38,57.27s-43.85,45.18-12.52,28.7c31.33-16.47,95.64-26.51,102.73-4.81c7.1,21.7,34.18-16.61,30.82,37.5
			c-3.35,54.11-37.63,7.84-32.92,47.51s-21.86,24.01-63.16-5.97c-41.3-29.98-68.85,6.26-47.54,11.15
			c21.31,4.89,39.84,19.22,49.6,32.82c9.76,13.6,20.92,41-31.22,59.4s-87.02-40.95-96.92-37.44c-9.9,3.5-8.47,54.35-34.34,53.66
			s-57.5-51.45-54.39-90.53C1705.13,476.43,1743.65,464.05,1762.61,461.77z"/>
	</g>
	<g>
		<path class="st0" d="M1130.61,695.77c-31.09,1.46-99.72,0.11-130.16-0.74l-0.28-6.07l129.84-6.08c-0.14-2.97-4.61-8.33-21.37-6.03
			c-20.95,2.88-29.56-10.58-42.67-35.04c-13.11-24.46,30.24-80.44,36.5-96.69c6.27-16.25,61.42-14.84,57.28,6.25
			c-4.14,21.09-4.09,38.37,1.97,42.08c6.06,3.71,34.9-45.71,48.6-53.38c13.7-7.67,61.56-7.82,76.56,12.37s-6.43,53.3-26.38,57.27
			s-43.85,45.18-12.52,28.7c31.33-16.47,95.64-26.51,102.73-4.81c7.1,21.7,34.18-16.61,30.82,37.5
			c-3.35,54.11-37.63,7.84-32.92,47.51c4.71,39.67-21.86,24.01-63.16-5.97c-41.3-29.98-68.85,6.26-47.54,11.15
			s39.84,19.22,49.6,32.82s20.92,41-31.22,59.4s-87.02-40.95-96.92-37.44c-9.9,3.5-8.47,54.35-34.34,53.66s-57.5-51.45-54.39-90.53
			C1073.13,710.43,1111.65,698.05,1130.61,695.77z"/>
	</g>
	<g>
		<path class="st0" d="M1593.78,1090.6c-17.79,25.53-60.7,79.12-79.93,102.73l-4.98-3.47l74.32-106.64
			c-2.44-1.7-9.41-1.43-17.8,13.27c-10.49,18.36-26.41,16.98-53.79,12.47c-27.38-4.51-45.34-73-54.4-87.88
			c-9.06-14.87,25.67-57.74,39.87-41.6c14.19,16.14,27.93,26.63,34.56,24.09c6.63-2.55-14.96-55.53-12.69-71.06
			c2.27-15.53,31.32-53.57,56.48-53.16s38.33,37.59,29.32,55.83c-9.01,18.24,9.08,62.3,15.12,27.42
			c6.04-34.88,37.28-91.98,58.81-84.37s7.67-37.22,48.51-1.58c40.85,35.64-16.72,34.61,17.6,55.06
			c34.32,20.45,5.71,31.97-43.23,46.43c-48.94,14.46-37,58.4-20.13,44.48c16.87-13.92,39.52-19.87,56.25-19.31
			c16.73,0.56,45.25,8.41,28.06,60.96c-17.2,52.55-85.5,44.03-88.76,54.01s37.92,39.84,21.61,59.93
			c-16.31,20.09-75.83,14.22-104.92-12.07C1570.36,1145.1,1584.04,1107.01,1593.78,1090.6z"/>
	</g>
	<g>
		<path class="st0" d="M153.78,177.6c-17.79,25.53-60.7,79.12-79.93,102.73l-4.98-3.47l74.32-106.64c-2.44-1.7-9.41-1.43-17.8,13.27
			c-10.49,18.36-26.41,16.98-53.79,12.47c-27.38-4.51-45.34-73-54.4-87.88s25.67-57.74,39.87-41.6
			c14.19,16.14,27.93,26.63,34.56,24.09S76.67,35.03,78.94,19.5c2.27-15.53,31.32-53.57,56.48-53.16s38.33,37.59,29.32,55.83
			s9.08,62.3,15.12,27.42c6.04-34.88,37.28-91.98,58.81-84.37s7.67-37.22,48.51-1.58s-16.72,34.61,17.6,55.06
			c34.32,20.45,5.71,31.97-43.23,46.43s-37,58.4-20.13,44.48s39.52-19.87,56.25-19.31c16.73,0.56,45.25,8.41,28.06,60.96
			c-17.2,52.55-85.5,44.03-88.76,54.01s37.92,39.84,21.61,59.93c-16.31,20.09-75.83,14.22-104.92-12.07
			C130.36,232.1,144.04,194.01,153.78,177.6z"/>
	</g>
	<g>
		<path class="st0" d="M1812.58,765.63c-0.99,31.1-7.72,99.43-10.96,129.7l-6.07-0.19l4.13-129.91c-2.97-0.09-8.67,3.94-7.69,20.83
			c1.23,21.11-12.87,28.64-38.28,39.79c-25.41,11.15-77.82-36.46-93.53-43.98c-15.71-7.52-9.98-62.4,10.72-56.61
			s37.93,7.09,42.1,1.34c4.17-5.75-42.83-38.38-49.4-52.64c-6.57-14.26-2.97-61.99,18.34-75.36c21.31-13.37,52.63,10.6,55.03,30.8
			c2.4,20.2,41.59,47.27,27.63,14.74s-18.93-97.42,3.27-102.79c22.19-5.37-13.87-35.37,39.8-27.78
			c53.68,7.59,4.86,38.12,44.78,36.54c39.92-1.58,22.22,23.68-10.91,62.49c-33.13,38.82,0.84,69.13,7.39,48.27
			c6.55-20.87,22.29-38.21,36.61-46.87s42.52-17.63,56.77,35.79c14.25,53.42-47.65,83.54-44.93,93.69
			c2.72,10.15,53.51,12.71,50.8,38.44s-55.8,53.28-94.52,47.12C1822.68,824.09,1813.37,784.71,1812.58,765.63z"/>
	</g>
</g>
<g id="Layer_2">
	<g>
		<path class="st1" d="M1210.95,675.73c-20.88,23.07-70.22,70.81-92.28,91.79l-4.5-4.07l87.22-96.37
			c-2.2-1.99-9.16-2.61-19.34,10.91c-12.73,16.89-28.34,13.5-54.94,5.56c-26.59-7.94-35.74-78.15-42.84-94.05
			c-7.11-15.9,32.77-54.03,44.81-36.22c12.04,17.8,24.33,29.95,31.23,28.27c6.9-1.69-7.81-56.97-3.59-72.1
			c4.22-15.12,37.85-49.18,62.75-45.58c24.9,3.6,33.27,42.14,22.02,59.09c-11.25,16.95,1.12,62.95,11.53,29.12
			c10.4-33.84,48.62-86.52,69.01-76.25s12.31-35.95,48.32,4.58c36.01,40.52-20.96,32.21,10.49,56.84
			c31.45,24.63,1.62,32.43-48.76,40.58c-50.38,8.15-44.1,53.25-25.6,41.58s41.72-14.71,58.24-12.04
			c16.52,2.67,43.83,14.07,20.12,64.02c-23.71,49.95-90.39,32.85-94.88,42.35c-4.5,9.49,32.57,44.32,13.85,62.18
			c-18.72,17.86-77.02,4.51-102.55-25.25C1180.82,726.83,1199.21,690.78,1210.95,675.73z"/>
	</g>
	<g>
		<path class="st1" d="M398.08,622.92c8.24,30.01,21.99,97.27,27.83,127.15l-5.86,1.61l-34.42-125.34
			c-2.87,0.79-7.12,6.32-1.19,22.17c7.41,19.81-3.84,31.16-24.83,49.32c-20.99,18.16-85.11-11.85-102.34-14.4
			c-17.23-2.55-27.96-56.67-6.47-57.26c21.48-0.59,38.34-4.43,40.62-11.15c2.29-6.73-52.25-24.02-62.74-35.71
			s-21.14-58.35-4.73-77.41s53.41-5.42,61.67,13.17s53.7,32.88,30.75,5.92c-22.95-26.95-46.85-87.49-27.23-99.18
			s-23.7-29.7,29.82-38.3c53.52-8.6,15.9,34.99,53.58,21.69c37.67-13.3,28.22,16.06,8.03,62.93s21.22,65.8,21.31,43.93
			c0.1-21.87,10.01-43.09,21.14-55.59c11.13-12.5,35.41-29.4,64.8,17.43s-20.86,93.88-15.27,102.78s54.88-3.66,59.88,21.73
			s-37.58,67.38-76.4,72.93C424.99,675.78,404.46,640.91,398.08,622.92z"/>
	</g>
	<g>
		<path class="st1" d="M654.1,240.98c8.26,30,22.04,97.26,27.89,127.14l-5.85,1.61L641.66,244.4c-2.87,0.79-7.12,6.33-1.18,22.17
			c7.42,19.8-3.82,31.16-24.8,49.33c-20.98,18.17-85.12-11.81-102.35-14.35c-17.23-2.54-27.99-56.66-6.5-57.25
			c21.48-0.6,38.33-4.45,40.62-11.17c2.28-6.73-52.26-24-62.76-35.67c-10.49-11.68-21.17-58.33-4.77-77.41s53.41-5.45,61.67,13.14
			c8.26,18.59,53.71,32.85,30.75,5.91c-22.96-26.94-46.89-87.47-27.28-99.16c19.61-11.69-23.72-29.69,29.8-38.31
			C628.38-7,590.78,36.6,628.45,23.29c37.67-13.32,28.23,16.05,8.06,62.92s21.25,65.79,21.33,43.92s9.99-43.09,21.11-55.6
			c11.12-12.51,35.4-29.42,64.81,17.4s-20.81,93.89-15.21,102.79c5.6,8.89,54.88-3.68,59.9,21.7c5.02,25.39-37.54,67.4-76.36,72.97
			C681.04,293.83,660.49,258.97,654.1,240.98z"/>
	</g>
	<g>
		<path class="st1" d="M1546.25,382.86c8.26,30,22.04,97.26,27.89,127.14l-5.85,1.61l-34.48-125.32c-2.87,0.79-7.12,6.33-1.18,22.17
			c7.42,19.8-3.82,31.16-24.8,49.33c-20.98,18.17-85.12-11.81-102.35-14.35c-17.23-2.54-27.99-56.66-6.5-57.25
			c21.48-0.6,38.33-4.45,40.62-11.17s-52.26-24-62.76-35.67c-10.49-11.68-21.17-58.33-4.77-77.41c16.4-19.08,53.41-5.45,61.67,13.14
			c8.26,18.59,53.71,32.85,30.75,5.91c-22.96-26.94-46.89-87.47-27.28-99.16c19.61-11.69-23.72-29.69,29.8-38.31
			c53.52-8.62,15.92,34.98,53.59,21.67c37.67-13.32,28.23,16.05,8.06,62.92c-20.17,46.88,21.25,65.79,21.33,43.92
			c0.08-21.87,9.99-43.09,21.11-55.6c11.12-12.51,35.4-29.42,64.81,17.4c29.41,46.82-20.81,93.89-15.21,102.79
			c5.6,8.89,54.88-3.68,59.9,21.7c5.02,25.39-37.54,67.4-76.36,72.97C1573.19,435.71,1552.65,400.85,1546.25,382.86z"/>
	</g>
	<g>
		<path class="st1" d="M1426.42,934.44c-30.95-3.23-98.61-14.86-128.57-20.27l0.63-6.04l129.28,13.47c0.31-2.96-3.3-8.93-20.22-9.17
			c-21.15-0.3-27.64-14.9-36.93-41.05c-9.29-26.15,41.96-74.99,50.6-90.12c8.64-15.13,62.95-5.46,55.7,14.77
			c-7.26,20.23-9.8,37.33-4.37,41.9c5.44,4.57,41.37-39.95,56.06-45.48c14.69-5.53,62.04,1.5,73.84,23.72
			c11.8,22.22-14.36,51.73-34.68,52.67c-20.32,0.93-50.14,38.08-16.69,26.5s98.53-11.86,102.29,10.66
			c3.76,22.52,36.28-11.29,24.84,41.7c-11.44,52.99-38.38,2.11-39.68,42.03c-1.3,39.93-25.22,20.46-61.55-15.38
			c-36.33-35.84-69.01-4.14-48.67,3.89c20.34,8.03,36.51,24.98,44.11,39.89c7.6,14.91,14.53,43.68-39.78,54.04
			c-54.31,10.37-79.89-53.54-90.21-51.56c-10.32,1.98-16.53,52.46-42,47.9c-25.47-4.56-49.13-59.49-40.19-97.67
			C1367.39,940.31,1407.34,933.85,1426.42,934.44z"/>
	</g>
	<g>
		<path class="st1" d="M68.62,1049.35c3.74,30.89,7.44,99.45,8.83,129.86l-6.03,0.73L55.81,1050.9c-2.95,0.36-7.97,5.21-4.44,21.75
			c4.41,20.68-8.38,30.26-31.81,45.13c-23.43,14.88-82.44-24.24-99.11-29.3c-16.67-5.06-19.32-60.17,2.02-57.59
			c21.34,2.58,38.57,1.26,41.82-5.06c3.25-6.32-48.15-31.45-56.8-44.55c-8.66-13.1-12.33-60.82,6.71-77.27
			c19.04-16.45,53.63,2.5,59.06,22.1s48.28,40.42,29.54,10.38c-18.73-30.04-33.47-93.43-12.35-102.1s-19.07-32.86,35.13-33.49
			c54.21-0.63,10.59,36.95,49.8,29.34c39.22-7.61,25.55,20.04-1.31,63.43c-26.86,43.39,11.31,68.21,14.62,46.59
			s16.24-41.15,29.09-51.88c12.85-10.73,39.35-23.87,61.53,26.77c22.18,50.64-34.44,89.79-30.22,99.41
			c4.22,9.62,54.82,4.46,56.04,30.3c1.21,25.85-47.08,61.12-86.29,60.9C87.46,1105.6,72.28,1068.09,68.62,1049.35z"/>
	</g>
	<g>
		<path class="st1" d="M105.52,319.48c3.74,30.89,7.44,99.45,8.83,129.86l-6.03,0.73L92.71,321.03c-2.95,0.36-7.97,5.21-4.44,21.75
			c4.41,20.68-8.38,30.26-31.81,45.13c-23.43,14.88-82.44-24.24-99.11-29.3s-19.32-60.17,2.02-57.59
			c21.34,2.58,38.57,1.26,41.82-5.06s-48.15-31.45-56.8-44.55c-8.66-13.1-12.33-60.82,6.71-77.27s53.63,2.5,59.06,22.1
			s48.28,40.42,29.54,10.38s-33.47-93.43-12.35-102.1S8.27,71.68,62.47,71.05c54.21-0.63,10.59,36.95,49.8,29.34
			c39.22-7.61,25.55,20.04-1.31,63.43s11.31,68.21,14.62,46.59s16.24-41.15,29.09-51.88c12.85-10.73,39.35-23.87,61.53,26.77
			s-34.44,89.79-30.22,99.41c4.22,9.62,54.82,4.46,56.04,30.3c1.21,25.85-47.08,61.12-86.29,60.9
			C124.36,375.72,109.18,338.21,105.52,319.48z"/>
	</g>
	<g>
		<path class="st1" d="M646.63,1041.6c-17.92,25.44-61.08,78.83-80.42,102.35l-4.96-3.5l74.83-106.28
			c-2.43-1.71-9.41-1.47-17.87,13.18c-10.57,18.31-26.49,16.86-53.85,12.21s-44.99-73.22-53.98-88.14
			c-8.99-14.92,25.95-57.62,40.07-41.41c14.12,16.21,27.8,26.77,34.44,24.25s-14.69-55.6-12.35-71.12
			c2.34-15.52,31.58-53.42,56.73-52.88c25.15,0.54,38.15,37.77,29.06,55.97s8.78,62.35,14.99,27.49
			c6.21-34.85,37.72-91.8,59.21-84.09c21.49,7.71,7.84-37.18,48.52-1.34s-16.88,34.53,17.34,55.14
			c34.22,20.61,5.55,31.99-43.45,46.22c-49.01,14.23-37.28,58.22-20.35,44.39c16.94-13.84,39.62-19.68,56.34-19.04
			c16.72,0.64,45.21,8.63,27.77,61.09c-17.45,52.46-85.71,43.62-89.02,53.59s37.73,40.02,21.32,60.03
			c-16.41,20.01-75.9,13.86-104.86-12.57C622.96,1095.99,636.81,1057.97,646.63,1041.6z"/>
	</g>
	<g>
		<path class="st1" d="M697.51,693.76c-17.92,25.44-61.08,78.83-80.42,102.35l-4.96-3.5l74.83-106.28
			c-2.43-1.71-9.41-1.47-17.87,13.18c-10.57,18.31-26.49,16.86-53.85,12.21c-27.36-4.65-44.99-73.22-53.98-88.14
			s25.95-57.62,40.07-41.41c14.12,16.21,27.8,26.77,34.44,24.25c6.64-2.52-14.69-55.6-12.35-71.12
			c2.34-15.52,31.58-53.42,56.73-52.88s38.15,37.77,29.06,55.97c-9.1,18.19,8.78,62.35,14.99,27.49
			c6.21-34.85,37.72-91.8,59.21-84.09c21.49,7.71,7.84-37.18,48.52-1.34c40.68,35.84-16.88,34.53,17.34,55.14
			c34.22,20.61,5.55,31.99-43.45,46.22c-49.01,14.23-37.28,58.22-20.35,44.39c16.94-13.84,39.62-19.68,56.34-19.04
			s45.21,8.63,27.77,61.09c-17.45,52.46-85.71,43.62-89.02,53.59s37.73,40.02,21.32,60.03c-16.41,20.01-75.9,13.86-104.86-12.57
			C673.83,748.15,687.68,710.13,697.51,693.76z"/>
	</g>
	<g>
		<path class="st1" d="M1058.51,113.76c-17.92,25.44-61.08,78.83-80.42,102.35l-4.96-3.5l74.83-106.28
			c-2.43-1.71-9.41-1.47-17.87,13.18c-10.57,18.31-26.49,16.86-53.85,12.21c-27.36-4.65-44.99-73.22-53.98-88.14
			s25.95-57.62,40.07-41.41c14.12,16.21,27.8,26.77,34.44,24.25s-14.69-55.6-12.35-71.12c2.34-15.52,31.58-53.42,56.73-52.88
			c25.15,0.54,38.15,37.77,29.06,55.97s8.78,62.35,14.99,27.49s37.72-91.8,59.21-84.09s7.84-37.18,48.52-1.34
			c40.68,35.84-16.88,34.53,17.34,55.14c34.22,20.61,5.55,31.99-43.45,46.22c-49.01,14.23-37.28,58.22-20.35,44.39
			s39.62-19.68,56.34-19.04c16.72,0.64,45.21,8.63,27.77,61.09s-85.71,43.62-89.02,53.59c-3.31,9.97,37.73,40.02,21.32,60.03
			s-75.9,13.86-104.86-12.57C1034.83,168.15,1048.68,130.13,1058.51,113.76z"/>
	</g>
	<g>
		<path class="st1" d="M393.97,99.52c21.59,22.41,65.84,74.9,85.26,98.35l-4.37,4.21l-90.18-93.61c-2.14,2.06-3.23,8.96,9.56,20.04
			c15.98,13.85,11.53,29.2,1.79,55.19c-9.74,25.99-80.41,30.3-96.76,36.31c-16.35,6-51.66-36.39-33.07-47.18
			c18.59-10.79,31.55-22.23,30.34-29.23c-1.21-7-57.38,3.89-72.17-1.35c-14.8-5.24-46.47-41.13-41.18-65.72
			c5.29-24.59,44.31-30.31,60.46-17.93s62.88,3.19,29.84-9.51s-82.99-54.42-71.35-74.07s-35.02-14.74,7.87-47.9
			s30.7,23.12,57.43-6.58c26.72-29.7,32.47,0.61,37.15,51.42c4.69,50.81,50.11,47.64,39.73,28.39s-11.82-42.63-8.03-58.93
			c3.79-16.3,17.04-42.76,65.25-15.69s26.59,92.42,35.75,97.56c9.16,5.14,46.45-29.46,62.98-9.56s-0.77,77.15-32.21,100.59
			C442.89,133.07,408.18,112.26,393.97,99.52z"/>
	</g>
	<g>
		<path class="st1" d="M1137.55,759.22c21.59,22.41,65.84,74.9,85.26,98.35l-4.37,4.21l-90.18-93.61
			c-2.14,2.06-3.23,8.96,9.56,20.04c15.98,13.85,11.53,29.2,1.79,55.19c-9.74,25.99-80.41,30.3-96.76,36.31
			s-51.66-36.39-33.07-47.18c18.59-10.79,31.55-22.23,30.34-29.23s-57.38,3.89-72.17-1.35c-14.8-5.24-46.47-41.13-41.18-65.72
			c5.29-24.59,44.31-30.31,60.46-17.93c16.14,12.38,62.88,3.19,29.84-9.51c-33.04-12.69-82.99-54.42-71.35-74.07
			c11.64-19.64-35.02-14.74,7.87-47.9c42.89-33.15,30.7,23.12,57.43-6.58c26.72-29.7,32.47,0.61,37.15,51.42
			c4.69,50.81,50.11,47.64,39.73,28.39c-10.38-19.25-11.82-42.63-8.03-58.93c3.79-16.3,17.04-42.76,65.25-15.69
			c48.21,27.07,26.59,92.42,35.75,97.56c9.16,5.14,46.45-29.46,62.98-9.56c16.54,19.9-0.77,77.15-32.21,100.59
			C1186.47,792.77,1151.76,771.97,1137.55,759.22z"/>
	</g>
	<g>
		<path class="st1" d="M1811.17,653.71c21.59,22.41,65.84,74.9,85.26,98.35l-4.37,4.21l-90.18-93.61
			c-2.14,2.06-3.23,8.96,9.56,20.04c15.98,13.85,11.53,29.2,1.79,55.19c-9.74,25.99-80.41,30.3-96.76,36.31
			s-51.66-36.39-33.07-47.18c18.59-10.79,31.55-22.23,30.34-29.23s-57.38,3.89-72.17-1.35c-14.8-5.24-46.47-41.13-41.18-65.72
			c5.29-24.59,44.31-30.31,60.46-17.93c16.14,12.38,62.88,3.19,29.84-9.51c-33.04-12.69-82.99-54.42-71.35-74.07
			c11.64-19.64-35.02-14.74,7.87-47.9c42.89-33.15,30.7,23.12,57.43-6.58c26.72-29.7,32.47,0.61,37.15,51.42
			c4.69,50.81,50.11,47.64,39.73,28.39c-10.38-19.25-11.82-42.63-8.03-58.93c3.79-16.3,17.04-42.76,65.25-15.69
			c48.21,27.07,26.59,92.42,35.75,97.56c9.16,5.14,46.45-29.46,62.98-9.56c16.54,19.9-0.77,77.15-32.21,100.59
			C1860.09,687.26,1825.38,666.45,1811.17,653.71z"/>
	</g>
	<g>
		<path class="st1" d="M1025.75,503.96c-20.88,23.07-70.22,70.81-92.28,91.79l-4.5-4.07l87.22-96.37
			c-2.2-1.99-9.16-2.61-19.34,10.91c-12.73,16.89-28.34,13.5-54.94,5.56c-26.59-7.94-35.74-78.15-42.84-94.05
			c-7.11-15.9,32.77-54.03,44.81-36.22c12.04,17.8,24.33,29.95,31.23,28.27c6.9-1.69-7.81-56.97-3.59-72.1
			c4.22-15.12,37.85-49.18,62.75-45.58c24.9,3.6,33.27,42.14,22.02,59.09c-11.25,16.95,1.12,62.95,11.53,29.12
			c10.4-33.84,48.62-86.52,69.01-76.25c20.39,10.27,12.31-35.95,48.32,4.58c36.01,40.52-20.96,32.21,10.49,56.84
			c31.45,24.63,1.62,32.43-48.76,40.58c-50.38,8.15-44.1,53.25-25.6,41.58c18.49-11.67,41.72-14.71,58.24-12.04
			c16.52,2.67,43.83,14.07,20.12,64.02s-90.39,32.85-94.88,42.35c-4.5,9.49,32.57,44.32,13.85,62.18
			c-18.72,17.86-77.02,4.51-102.55-25.25C995.63,555.06,1014.01,519,1025.75,503.96z"/>
	</g>
	<g>
		<path class="st1" d="M519.14,132.64c8.26,30,22.04,97.26,27.89,127.14l-5.85,1.61L506.7,136.07c-2.87,0.79-7.12,6.33-1.18,22.17
			c7.42,19.8-3.82,31.16-24.8,49.33c-20.98,18.17-85.12-11.81-102.35-14.35c-17.23-2.54-27.99-56.66-6.5-57.25
			c21.48-0.6,38.33-4.45,40.62-11.17s-52.26-24-62.76-35.67c-10.49-11.68-21.17-58.33-4.77-77.41s53.41-5.45,61.67,13.14
			c8.26,18.59,53.71,32.85,30.75,5.91s-46.89-87.47-27.28-99.16s-23.72-29.69,29.8-38.31c53.52-8.62,15.92,34.98,53.59,21.67
			c37.67-13.32,28.23,16.05,8.06,62.92s21.25,65.79,21.33,43.92c0.08-21.87,9.99-43.09,21.11-55.6
			c11.12-12.51,35.4-29.42,64.81,17.4C638.22,30.41,588,77.49,593.59,86.38s54.88-3.68,59.9,21.7c5.02,25.39-37.54,67.4-76.36,72.97
			C546.08,185.49,525.53,150.63,519.14,132.64z"/>
	</g>
	<g>
		<path class="st1" d="M246.86,820.02c3.74,30.89,7.44,99.45,8.83,129.86l-6.03,0.73l-15.61-129.04c-2.95,0.36-7.97,5.21-4.44,21.75
			c4.41,20.68-8.38,30.26-31.81,45.13c-23.43,14.88-82.44-24.24-99.11-29.3s-19.32-60.17,2.02-57.59
			c21.34,2.58,38.57,1.26,41.82-5.06c3.25-6.32-48.15-31.45-56.8-44.55c-8.66-13.1-12.33-60.82,6.71-77.27
			c19.04-16.45,53.63,2.5,59.06,22.1s48.28,40.42,29.54,10.38c-18.73-30.04-33.47-93.43-12.35-102.1
			c21.12-8.67-19.07-32.86,35.13-33.49s10.59,36.95,49.8,29.34c39.22-7.61,25.55,20.04-1.31,63.42
			c-26.86,43.39,11.31,68.21,14.62,46.59c3.31-21.62,16.24-41.15,29.09-51.88c12.85-10.73,39.35-23.87,61.53,26.77
			c22.18,50.64-34.44,89.79-30.22,99.41c4.22,9.62,54.82,4.46,56.04,30.3c1.21,25.85-47.08,61.12-86.29,60.9
			C265.7,876.26,250.52,838.75,246.86,820.02z"/>
	</g>
	<g>
		<path class="st1" d="M273.4,1029.88c3.74,30.89,7.44,99.45,8.83,129.86l-6.03,0.73l-15.61-129.04c-2.95,0.36-7.97,5.21-4.44,21.75
			c4.41,20.68-8.38,30.26-31.81,45.13s-82.44-24.24-99.11-29.3c-16.67-5.06-19.32-60.17,2.02-57.59
			c21.34,2.58,38.57,1.26,41.82-5.06c3.25-6.32-48.15-31.45-56.8-44.55c-8.66-13.1-12.33-60.82,6.71-77.27
			c19.04-16.45,53.63,2.5,59.06,22.1c5.43,19.6,48.28,40.42,29.54,10.38c-18.73-30.04-33.47-93.43-12.35-102.1
			c21.12-8.67-19.07-32.86,35.13-33.49s10.59,36.95,49.8,29.34c39.22-7.61,25.55,20.04-1.31,63.42
			c-26.86,43.39,11.31,68.21,14.62,46.59s16.24-41.15,29.09-51.88c12.85-10.73,39.35-23.87,61.53,26.77
			c22.18,50.64-34.44,89.79-30.22,99.41c4.22,9.62,54.82,4.46,56.04,30.3c1.21,25.85-47.08,61.12-86.29,60.9
			C292.24,1086.13,277.07,1048.62,273.4,1029.88z"/>
	</g>
	<g>
		<path class="st1" d="M495.39,805.16c-17.92,25.44-61.08,78.83-80.42,102.35l-4.96-3.5l74.83-106.28
			c-2.43-1.71-9.41-1.47-17.87,13.18c-10.57,18.31-26.49,16.86-53.85,12.21c-27.36-4.65-44.99-73.22-53.98-88.14
			c-8.99-14.92,25.95-57.62,40.07-41.41c14.12,16.21,27.8,26.77,34.44,24.25s-14.69-55.6-12.35-71.12s31.58-53.42,56.73-52.88
			c25.15,0.54,38.15,37.77,29.06,55.97c-9.1,18.19,8.78,62.35,14.99,27.49c6.21-34.85,37.72-91.8,59.21-84.09
			c21.49,7.71,7.84-37.18,48.52-1.34s-16.88,34.53,17.34,55.14c34.22,20.61,5.55,31.99-43.45,46.22
			c-49.01,14.23-37.28,58.22-20.35,44.39c16.94-13.84,39.62-19.68,56.34-19.04s45.21,8.63,27.77,61.09
			c-17.45,52.46-85.71,43.62-89.02,53.59s37.73,40.02,21.32,60.03c-16.41,20.01-75.9,13.86-104.86-12.57
			C471.71,859.55,485.57,821.53,495.39,805.16z"/>
	</g>
</g>
<g id="Layer_1">
	<g>
		<path class="st2" d="M914.93,870.1c23.07,20.88,70.81,70.22,91.79,92.28l-4.07,4.5l-96.37-87.22c-1.99,2.2-2.61,9.16,10.91,19.34
			c16.89,12.73,13.5,28.34,5.56,54.94c-7.94,26.59-78.15,35.74-94.05,42.84c-15.9,7.11-54.03-32.77-36.22-44.81
			c17.8-12.04,29.95-24.33,28.27-31.23c-1.69-6.9-56.97,7.81-72.1,3.59c-15.12-4.22-49.18-37.85-45.58-62.75
			c3.6-24.9,42.14-33.27,59.09-22.02s62.95-1.12,29.12-11.53s-86.52-48.62-76.25-69.01s-35.95-12.31,4.58-48.32
			s32.21,20.96,56.84-10.49c24.63-31.45,32.43-1.62,40.58,48.76s53.25,44.1,41.58,25.6c-11.67-18.49-14.71-41.72-12.04-58.24
			s14.07-43.83,64.02-20.12c49.95,23.71,32.85,90.39,42.35,94.88c9.49,4.5,44.32-32.57,62.18-13.85
			c17.86,18.72,4.51,77.02-25.25,102.55C966.03,900.23,929.98,881.85,914.93,870.1z"/>
	</g>
	<g>
		<path class="st2" d="M855.3,329.48c-2.97-0.2-8.8,3.63-8.42,20.55c0.48,21.14-13.87,28.17-39.66,38.42
			c-25.79,10.25-76.49-39.17-91.92-47.25c-15.43-8.07-7.77-62.71,12.71-56.2s37.66,8.42,42.03,2.82
			c4.37-5.6-41.45-39.87-47.51-54.35c-6.07-14.48-0.78-62.05,20.98-74.66c21.77-12.61,52.23,12.44,53.91,32.71s39.9,48.7,27.09,15.7
			s-15.48-98.03,6.88-102.62s-12.62-35.84,40.76-26.36c53.38,9.48,3.52,38.27,43.47,38.1c39.95-0.17,21.37,24.45-13.1,62.07
			c-34.47,37.62-1.59,69.12,5.68,48.5c7.28-20.62,23.62-37.4,38.24-45.55c14.62-8.15,43.11-16.13,55.47,37.76
			s-50.56,81.81-48.21,92.05c2.36,10.24,53.03,14.59,49.41,40.21C999.5,377,945.48,402.66,907,395.13
			c-30.79-6.02-38.71-45.7-38.82-64.79"/>
	</g>
	<g>
		<path class="st2" d="M1462.75,732.41c-2.08,31.05-11.21,99.09-15.52,129.23l-6.06-0.41l8.7-129.69c-2.97-0.2-8.8,3.63-8.42,20.55
			c0.48,21.14-13.87,28.17-39.66,38.42s-76.49-39.17-91.92-47.25s-7.77-62.71,12.71-56.2c20.48,6.51,37.66,8.42,42.03,2.82
			c4.37-5.6-41.45-39.87-47.51-54.35c-6.07-14.48-0.78-62.05,20.98-74.66c21.77-12.61,52.23,12.44,53.91,32.71
			c1.68,20.27,39.9,48.7,27.09,15.7c-12.81-33-15.48-98.03,6.88-102.62s-12.62-35.84,40.76-26.36c53.38,9.48,3.52,38.27,43.47,38.1
			c39.95-0.17,21.37,24.45-13.1,62.07c-34.47,37.62-1.59,69.12,5.68,48.5s23.62-37.4,38.24-45.55s43.11-16.13,55.47,37.76
			c12.36,53.89-50.56,81.81-48.21,92.05c2.36,10.24,53.03,14.59,49.41,40.21s-57.64,51.29-96.12,43.76
			C1470.78,791.19,1462.86,751.5,1462.75,732.41z"/>
	</g>
	<g>
		<path class="st2" d="M290.14,534.54c28.25,13.05,88.53,45.91,115.13,60.71l-2.55,5.51l-118-54.51c-1.25,2.7,0.24,9.52,16.18,15.21
			c19.92,7.11,21.34,23.03,21.69,50.78s-63.94,57.42-77,68.94s-61.34-15.17-47.94-31.97c13.4-16.8,21.33-32.16,17.67-38.24
			c-3.67-6.08-52.05,24.45-67.74,24.93c-15.69,0.49-58.23-21.46-62.22-46.3s30.3-44.32,49.83-38.64
			c19.53,5.68,59.75-19.85,24.35-19.69c-35.4,0.16-97.08-20.6-93.37-43.13c3.72-22.53-37.98-1.03-10.04-47.49s37,10.4,51.13-26.97
			c14.13-37.37,30.47-11.22,53.28,34.43s63.98,26.21,47.32,12.04s-26.48-35.43-28.86-52c-2.38-16.57,0.36-46.03,55.1-38.3
			s58.32,76.47,68.72,77.94c10.4,1.46,32.59-44.31,55.22-31.76s27.28,72.17,6.49,105.42C347.9,548.06,308.01,541.26,290.14,534.54z"
			/>
	</g>
	<g>
		<path class="st2" d="M1475.72,131.2c-27.18,15.16-89.21,44.56-116.84,57.37l-2.96-5.3l113.51-63.33c-1.45-2.6-7.84-5.4-21.81,4.13
			c-17.47,11.92-31.18,3.71-53.82-12.34S1385,26.24,1383.36,8.9c-1.64-17.34,48.36-40.67,54.06-19.95
			c5.7,20.72,13.45,36.17,20.53,36.79c7.08,0.61,10.86-56.47,19.7-69.45c8.84-12.97,51.62-34.45,74.05-23.06s18.01,50.58,1.92,63.03
			c-16.09,12.45-19.11,59.99,1.59,31.27c20.7-28.72,73.78-66.37,89.81-50.11c16.03,16.26,23.19-30.1,44.31,19.82
			s-30.18,23.79-8.28,57.21c21.9,33.41-8.86,31.24-59.19,22.81s-58.84,36.31-37.58,31.18c21.26-5.13,44.23-0.56,59.03,7.26
			s37,27.38-1.46,67.09s-96.15,2.15-103.45,9.7c-7.3,7.55,16.65,52.42-6.81,63.34c-23.46,10.92-74.4-20.41-89.05-56.79
			C1430.81,169.95,1459.78,141.69,1475.72,131.2z"/>
	</g>
	<g>
		<path class="st2" d="M1187.74,996.68c-24.26-19.49-74.81-65.95-97.05-86.74l3.8-4.73l101.33,81.41c1.86-2.32,2.06-9.3-12.02-18.67
			c-17.61-11.71-15.15-27.5-8.78-54.52c6.37-27.01,75.92-40.26,91.38-48.29s55.86,29.54,38.79,42.61
			c-17.07,13.06-28.47,26.05-26.38,32.84c2.09,6.79,56.42-11.14,71.76-7.82c15.34,3.32,51.31,34.9,49.19,59.96
			c-2.13,25.07-40.11,35.69-57.69,25.45c-17.58-10.23-62.78,4.82-28.39,13.22c34.39,8.4,89.23,43.45,80.18,64.42
			c-9.05,20.96,36.61,10.18-1.73,48.51c-38.34,38.33-33.39-19.04-56.13,13.81c-22.74,32.85-32.28,3.52-43.38-46.29
			s-55.75-40.89-43.01-23.12c12.74,17.78,17.13,40.78,15.44,57.43s-11.47,44.58-62.73,23.84s-38.1-88.3-47.84-92.23
			s-42.33,35.12-61.26,17.47c-18.93-17.64-9.03-76.62,19.18-103.86C1134.96,969.61,1172.03,985.84,1187.74,996.68z"/>
	</g>
	<g>
		<path class="st2" d="M401.75,1054.41c-2.08,31.05-11.21,99.09-15.52,129.23l-6.06-0.41l8.7-129.69c-2.97-0.2-8.8,3.63-8.42,20.55
			c0.48,21.14-13.87,28.17-39.66,38.42c-25.79,10.25-76.49-39.17-91.92-47.25s-7.77-62.71,12.71-56.2
			c20.48,6.51,37.66,8.42,42.03,2.82c4.37-5.6-41.45-39.87-47.51-54.35c-6.07-14.48-0.78-62.05,20.98-74.66s52.23,12.44,53.91,32.71
			c1.68,20.27,39.9,48.7,27.09,15.7c-12.81-33-15.48-98.03,6.88-102.62c22.37-4.59-12.62-35.84,40.76-26.36s3.52,38.27,43.47,38.1
			c39.95-0.17,21.37,24.45-13.1,62.07s-1.59,69.12,5.68,48.5c7.28-20.62,23.62-37.4,38.24-45.55s43.11-16.13,55.47,37.76
			c12.36,53.89-50.56,81.81-48.21,92.05c2.36,10.24,53.03,14.59,49.41,40.21c-3.62,25.62-57.64,51.29-96.12,43.76
			C409.78,1113.19,401.86,1073.5,401.75,1054.41z"/>
	</g>
	<g>
		<path class="st2" d="M566.4,333.49c15.32,27.09,45.07,88.96,58.03,116.51l-5.29,2.99l-63.97-113.15
			c-2.59,1.46-5.36,7.87,4.26,21.79c12.02,17.4,3.88,31.16-12.04,53.89c-15.92,22.73-85.43,9.28-102.76,11.02
			c-17.33,1.73-40.95-48.13-20.25-53.94c20.69-5.81,36.1-13.65,36.67-20.73c0.57-7.08-56.53-10.54-69.56-19.31
			c-13.02-8.77-34.74-51.42-23.48-73.92c11.26-22.5,50.47-18.29,63.02-2.28c12.54,16.01,60.1,18.77,31.26-1.76
			s-66.79-73.41-50.62-89.53c16.17-16.12-30.23-23.01,19.57-44.42s23.96,30.05,57.25,7.96c33.29-22.09,31.29,8.69,23.15,59.06
			s36.64,58.63,31.39,37.4s-0.81-44.23,6.93-59.07s27.17-37.16,67.1,1.08s2.69,96.13,10.29,103.39c7.59,7.26,52.33-16.94,63.38,6.45
			c11.05,23.4-19.99,74.52-56.28,89.37C605.41,378.19,576.98,349.38,566.4,333.49z"/>
	</g>
	<g>
		<path class="st2" d="M1708.79,876.61c15.32,27.09,45.07,88.96,58.03,116.51l-5.29,2.99l-63.97-113.15
			c-2.59,1.46-5.36,7.87,4.26,21.79c12.02,17.4,3.88,31.16-12.04,53.89c-15.92,22.73-85.43,9.28-102.76,11.02
			c-17.33,1.73-40.95-48.13-20.25-53.94s36.1-13.65,36.67-20.73c0.57-7.08-56.53-10.54-69.56-19.31
			c-13.02-8.77-34.74-51.42-23.48-73.92c11.26-22.5,50.47-18.29,63.02-2.28s60.1,18.77,31.26-1.76
			c-28.83-20.54-66.79-73.41-50.62-89.53c16.17-16.12-30.23-23.01,19.57-44.42c49.81-21.4,23.96,30.05,57.25,7.96
			c33.29-22.09,31.29,8.69,23.15,59.06c-8.14,50.38,36.64,58.63,31.39,37.4s-0.81-44.23,6.93-59.07
			c7.74-14.84,27.17-37.16,67.1,1.08c39.93,38.24,2.69,96.13,10.29,103.39c7.59,7.26,52.33-16.94,63.38,6.45
			s-19.99,74.52-56.28,89.37C1747.79,921.31,1719.37,892.5,1708.79,876.61z"/>
	</g>
	<g>
		<path class="st2" d="M1299.88,376.6c15.32,27.09,45.07,88.96,58.03,116.51l-5.29,2.99l-63.97-113.15
			c-2.59,1.46-5.36,7.87,4.26,21.79c12.02,17.4,3.88,31.16-12.04,53.89s-85.43,9.28-102.76,11.02
			c-17.33,1.73-40.95-48.13-20.25-53.94s36.1-13.65,36.67-20.73s-56.53-10.54-69.56-19.31c-13.02-8.77-34.74-51.42-23.48-73.92
			c11.26-22.5,50.47-18.29,63.02-2.28c12.54,16.01,60.1,18.77,31.26-1.76c-28.83-20.54-66.79-73.41-50.62-89.53
			c16.17-16.12-30.23-23.01,19.57-44.42c49.81-21.4,23.96,30.05,57.25,7.96c33.29-22.09,31.29,8.69,23.15,59.06
			c-8.14,50.38,36.64,58.63,31.39,37.4s-0.81-44.23,6.93-59.07c7.74-14.84,27.17-37.16,67.1,1.08
			c39.93,38.24,2.69,96.13,10.29,103.39s52.33-16.94,63.38,6.45c11.05,23.4-19.99,74.52-56.28,89.37
			C1338.88,421.3,1310.46,392.49,1299.88,376.6z"/>
	</g>
	<g>
		<path class="st2" d="M1698.35,447.9c-23.18,20.76-77.26,63.06-101.39,81.61l-4.05-4.52l96.84-86.7
			c-1.98-2.21-8.83-3.55-20.38,8.82c-14.43,15.46-29.6,10.46-55.22-0.23c-25.61-10.69-27.35-81.47-32.75-98.03
			c-5.4-16.56,38.25-50.3,48.36-31.33c10.11,18.97,21.06,32.34,28.1,31.38s-1.8-57.48,3.98-72.08s42.8-44.94,67.18-38.75
			c24.38,6.18,28.67,45.39,15.71,61.07c-12.96,15.68-5.48,62.72,8.41,30.16c13.89-32.56,57.42-80.95,76.62-68.6
			c19.21,12.35,16.01-34.46,47.58,9.62s-24.22,29.84,4.48,57.63c28.7,27.79-1.79,32.42-52.74,35.25
			c-50.95,2.83-49.43,48.33-29.82,38.67c19.62-9.67,43.03-10.26,59.18-5.87s42.11,18.59,13.3,65.77s-93.33,23.2-98.8,32.17
			c-5.47,8.97,27.75,47.49,7.26,63.29c-20.49,15.8-77.07-3.58-99.34-35.86C1663.04,495.56,1685.1,461.63,1698.35,447.9z"/>
	</g>
	<g>
		<path class="st2" d="M1.74,130.5c-23.18,20.76-77.26,63.06-101.39,81.61l-4.05-4.52l96.84-86.7c-1.98-2.21-8.83-3.55-20.38,8.82
			c-14.43,15.46-29.6,10.46-55.22-0.23c-25.61-10.69-27.35-81.47-32.75-98.03c-5.4-16.56,38.25-50.3,48.36-31.33
			c10.11,18.97,21.06,32.34,28.1,31.38s-1.8-57.48,3.98-72.08C-29-55.17,8.02-85.51,32.4-79.32c24.38,6.18,28.67,45.39,15.71,61.07
			s-5.48,62.72,8.41,30.16s57.42-80.95,76.62-68.6s16.01-34.46,47.58,9.62s-24.22,29.84,4.48,57.63
			c28.7,27.79-1.79,32.42-52.74,35.25c-50.95,2.83-49.43,48.33-29.82,38.67s43.03-10.26,59.18-5.87s42.11,18.59,13.3,65.77
			s-93.33,23.2-98.8,32.17c-5.47,8.97,27.75,47.49,7.26,63.29s-77.07-3.58-99.34-35.86C-33.58,178.16-11.52,144.23,1.74,130.5z"/>
	</g>
	<g>
		<path class="st2" d="M1000.67,615.24c-23.18,20.76-77.26,63.06-101.39,81.61l-4.05-4.52l96.84-86.7
			c-1.98-2.21-8.83-3.55-20.38,8.82c-14.43,15.46-29.6,10.46-55.22-0.23c-25.61-10.69-27.35-81.47-32.75-98.03
			c-5.4-16.56,38.25-50.3,48.36-31.33c10.11,18.97,21.06,32.34,28.1,31.38c7.04-0.96-1.8-57.48,3.98-72.08
			c5.78-14.6,42.8-44.94,67.18-38.75c24.38,6.18,28.67,45.39,15.71,61.07c-12.96,15.68-5.48,62.72,8.41,30.16
			c13.89-32.56,57.42-80.95,76.62-68.6s16.01-34.46,47.58,9.62s-24.22,29.84,4.48,57.63c28.7,27.79-1.79,32.42-52.74,35.25
			s-49.43,48.33-29.82,38.67c19.62-9.67,43.03-10.26,59.18-5.87s42.11,18.59,13.3,65.77c-28.81,47.19-93.33,23.2-98.8,32.17
			s27.75,47.49,7.26,63.29s-77.07-3.58-99.34-35.86C965.35,662.9,987.41,628.97,1000.67,615.24z"/>
	</g>
	<g>
		<path class="st2" d="M517.87,717.57c-10.67,29.23-38.44,92.02-50.99,119.76l-5.7-2.08l44.57-122.1
			c-2.79-1.02-9.47,1.03-13.82,17.38c-5.44,20.44-21.19,23.17-48.81,25.81s-62.5-58.98-75.07-71.04
			c-12.57-12.06,10.05-62.39,27.9-50.42c17.85,11.97,33.81,18.6,39.57,14.45s-28.66-49.85-30.44-65.45
			c-1.78-15.6,16.58-59.8,41-65.83c24.42-6.03,46.67,26.53,42.63,46.47c-4.05,19.94,24.71,57.91,21.63,22.64
			s12.51-98.45,35.27-96.61s-2.11-37.94,46.5-13.93c48.61,24.01-7.31,37.73,31.1,48.72c38.41,10.99,13.69,29.44-29.92,55.94
			c-43.61,26.5-20.83,65.92-8.09,48.16c12.75-17.77,33.13-29.32,49.44-33.06c16.31-3.74,45.9-3.44,42.72,51.75
			c-3.18,55.2-71.4,64.43-71.99,74.92s46.85,28.82,36.22,52.41c-10.63,23.59-69.67,33.15-104.52,15.17
			C509.18,776.25,512.65,735.93,517.87,717.57z"/>
	</g>
</g>
</svg>
