<svg width="145" height="144" viewBox="0 0 145 144" fill="none" xmlns="http://www.w3.org/2000/svg">
<path d="M11.3705 72.7177L14.3671 52.5299L47.6995 46.596L35.2912 27.6489L51.1149 19.0291C57.8988 31.4878 71.9309 54.93 73.7887 49.0286C75.6466 43.1271 72.1213 23.1297 70.1265 13.8686C74.874 15.0017 85.1682 17.5355 88.3648 18.6052C91.5613 19.675 84.7683 42.5309 80.9722 53.8251C84.8174 46.3233 94.1153 31.5059 100.545 32.2516C108.583 33.1837 118.904 71.2068 113.2 65.4896C108.637 60.9158 93.2539 68.4819 86.1327 72.8367L104.661 92.0254L98.8152 119.56C91.311 109.546 75.1747 89.823 70.6635 91.0475C66.1522 92.272 73.3612 108.421 77.5295 116.343L52.7845 116.313C55.3607 108.809 57.5943 93.2457 45.9184 91.0178C34.2426 88.7899 26.8309 98.4477 24.5846 103.555L14.4318 83.9957L54.8717 73.0188C48.6051 72.8746 34.9661 71.5717 30.5432 67.5135C26.1203 63.4553 15.9186 69.292 11.3705 72.7177Z" fill="#FDFF9A"/>
<path d="M75.214 16.262L95.0839 20.9216L98.2345 54.6311L118.145 43.836L125.423 60.3198C112.445 66.0476 87.9207 78.0883 93.6478 80.4289C99.3749 82.7695 119.596 80.914 128.99 79.6937C127.468 84.331 124.089 94.3797 122.758 97.4766C121.427 100.573 99.213 91.9093 88.2723 87.1901C95.4296 91.6439 109.425 102.138 108.149 108.484C106.554 116.416 67.8063 123.55 73.9766 118.34C78.9129 114.172 72.6479 98.2147 68.8984 90.757L48.24 107.631L21.2846 99.523C31.8866 92.8747 52.8789 78.4287 52.0325 73.8315C51.1861 69.2343 34.4951 75.0798 26.2554 78.5773L28.3361 53.9199C35.6001 57.1092 50.9252 60.6251 54.1132 49.1741C57.3012 37.7231 48.291 29.5364 43.3874 26.8745L63.721 18.3779L71.3081 59.5885C71.9712 53.3554 74.4002 39.8713 78.8111 35.8001C83.2219 31.7288 78.2509 21.0783 75.214 16.262Z" fill="#EC52AE"/>
<path d="M61.0362 38.5426L76.1008 34.4102L90.5742 55.9399L100.001 41.3938L110.936 49.823C104.311 58.4239 92.2389 75.4959 96.9466 74.9761C101.654 74.4562 114.567 65.8117 120.435 61.5544C121.111 65.2316 122.523 73.2288 122.763 75.7994C123.004 78.37 104.895 80.6653 95.8113 81.4916C102.255 81.8706 115.509 83.8126 116.978 88.5494C118.813 94.4703 95.3809 113.443 97.619 107.68C99.4095 103.07 89.3493 94.6245 84.0953 90.9779L76.3934 109.888L55.3018 114.292C59.9918 105.94 68.8082 88.5419 66.5542 85.7582C64.3003 82.9744 55.223 93.0126 50.966 98.3797L43.327 81.0275C49.379 80.5166 60.9693 77.277 58.9152 68.4059C56.8612 59.5349 47.8037 57.3219 43.5318 57.3243L54.086 44.17L74.291 69.1242C72.4522 64.6876 69.1426 54.7262 70.6154 50.3734C72.0882 46.0207 64.8429 40.6726 61.0362 38.5426Z" fill="#FDFF9A"/>
</svg>
